<?xml version="1.0" standalone="no"?>
<!DOCTYPE svg PUBLIC "-//W3C//DTD SVG 20010904//EN"
 "http://www.w3.org/TR/2001/REC-SVG-20010904/DTD/svg10.dtd">
<svg version="1.0" xmlns="http://www.w3.org/2000/svg"
 width="1288.000000pt" height="1288.000000pt" viewBox="0 0 1288.000000 1288.000000"
 preserveAspectRatio="xMidYMid meet">
<metadata>
Created by potrace 1.11, written by Peter Selinger 2001-2013
</metadata>
<g transform="translate(0.000000,1288.000000) scale(0.100000,-0.100000)"
fill="#000000" stroke="none">
<path d="M12685 12862 c-22 -8 -56 -20 -75 -28 -35 -13 -107 -40 -530 -194
-124 -45 -243 -88 -265 -97 -22 -8 -143 -52 -270 -98 -126 -46 -329 -120 -450
-165 -121 -45 -224 -83 -230 -84 -5 -2 -17 -6 -25 -9 -8 -3 -64 -23 -125 -45
-60 -22 -177 -65 -260 -95 -82 -30 -393 -144 -690 -252 -297 -108 -594 -216
-660 -240 -106 -39 -195 -72 -565 -207 -173 -63 -195 -71 -215 -79 -11 -4
-319 -116 -685 -249 -366 -133 -674 -245 -685 -250 -11 -5 -213 -79 -450 -165
-236 -86 -461 -168 -500 -183 -38 -14 -72 -27 -75 -27 -6 0 -99 -34 -125 -45
-11 -5 -335 -124 -720 -264 -385 -140 -781 -284 -880 -321 -99 -36 -187 -68
-195 -70 -15 -4 -881 -320 -1080 -394 -93 -35 -374 -137 -650 -237 -52 -19
-124 -46 -160 -59 -36 -14 -159 -59 -275 -100 -115 -42 -219 -80 -230 -85 -11
-4 -227 -83 -480 -175 -253 -91 -469 -170 -480 -174 -42 -17 -137 -52 -318
-117 -103 -37 -186 -68 -185 -70 2 -1 61 8 133 21 72 13 146 26 165 29 19 3
46 8 60 10 36 7 249 44 290 51 19 3 46 8 60 10 49 10 75 15 110 20 20 3 47 7
60 10 14 3 41 8 60 11 19 4 44 8 55 11 11 2 35 6 54 9 18 3 43 8 55 10 11 2
48 9 81 14 33 6 74 13 90 16 30 5 261 46 365 64 30 6 64 12 75 14 11 2 63 11
115 20 52 9 105 18 116 20 12 3 37 7 55 10 19 3 45 8 59 11 13 2 42 7 65 11
22 3 58 9 80 14 22 5 60 12 85 15 24 4 47 8 50 10 3 1 25 6 50 9 25 3 56 8 70
11 14 3 63 12 110 20 47 8 135 23 195 34 61 11 124 22 140 25 39 6 253 44 285
51 13 2 42 7 65 10 22 3 47 8 55 10 14 4 37 8 113 20 17 3 106 19 197 35 91
16 179 32 195 35 17 2 41 7 55 10 14 3 52 10 85 15 33 5 71 11 85 14 13 3 40
8 60 11 20 3 47 8 60 11 14 3 36 7 50 9 14 1 41 6 60 9 224 40 271 48 505 91
17 3 57 9 90 15 33 5 71 12 85 15 14 3 39 8 55 10 17 3 66 12 110 20 44 8 96
17 115 20 19 3 48 8 63 11 16 3 38 7 50 9 12 1 74 12 137 23 63 12 131 24 150
27 19 3 123 22 230 41 107 19 210 37 229 40 18 3 43 8 55 10 11 2 48 9 81 14
33 5 71 12 85 15 14 3 52 10 85 15 64 11 77 13 140 25 22 4 47 9 55 10 59 10
88 15 110 19 14 3 77 14 140 25 107 19 132 23 200 35 14 3 66 12 115 20 50 9
101 18 115 21 13 2 42 7 65 10 22 3 47 8 55 10 8 2 80 16 160 29 80 14 222 39
315 56 94 17 184 33 200 35 17 3 82 15 145 26 63 12 129 23 145 26 24 3 146
25 325 57 65 12 218 38 245 42 17 3 53 9 81 15 28 5 64 12 80 15 16 2 90 15
164 29 159 29 182 32 235 40 22 4 47 8 55 10 8 2 31 7 50 10 19 3 71 12 115
20 44 8 91 16 105 19 14 2 54 9 90 16 36 7 78 14 94 16 15 2 35 5 45 8 9 3 36
8 61 11 25 3 52 8 60 10 8 2 121 23 250 45 236 41 268 47 305 54 11 2 54 9 95
16 41 6 91 15 110 20 19 5 53 11 75 15 104 15 169 26 175 30 3 2 28 7 56 10
27 4 58 9 69 10 51 9 203 37 225 41 14 3 36 7 50 9 31 5 308 54 336 59 12 3
39 7 60 10 22 4 86 15 144 25 58 11 121 22 140 25 19 3 46 8 60 11 14 3 79 14
145 26 66 11 121 22 124 24 5 5 5 2365 0 2369 -2 1 -22 -4 -44 -12z"/>
<path d="M249 6353 c0 -23 0 -6301 0 -6331 l1 -22 2548 2 2547 3 0 730 0 730
-1580 2 c-869 1 -1586 2 -1592 3 -10 0 -13 111 -13 523 l0 522 1146 0 c695 0
1148 4 1152 9 8 14 6 1315 -3 1324 -3 4 -520 7 -1148 7 l-1142 0 -3 523 -2
522 27 1 c16 0 587 1 1271 1 683 1 1242 4 1242 8 0 6 -149 272 -191 340 -23
39 -126 217 -132 230 -4 8 -20 36 -35 61 -15 26 -128 222 -252 437 l-225 391
-1807 1 c-1715 0 -1808 -1 -1809 -17z"/>
<path d="M4478 6338 c17 -28 88 -150 152 -263 50 -88 175 -304 191 -330 10
-16 24 -41 32 -55 13 -24 236 -411 345 -600 157 -270 277 -478 292 -505 9 -17
50 -87 90 -155 40 -69 78 -134 84 -145 24 -43 142 -248 157 -273 9 -15 59
-101 111 -192 53 -91 186 -322 298 -515 111 -192 259 -449 329 -569 l126 -220
0 -1255 0 -1256 953 -3 952 -2 1 37 c0 21 0 587 1 1258 l0 1219 130 226 c72
124 140 239 152 255 11 17 19 30 17 30 -3 0 2 11 11 25 8 14 67 115 131 225
63 110 123 214 134 232 10 17 36 62 57 100 79 137 289 500 326 563 21 36 87
151 148 255 60 105 119 206 131 225 11 19 24 42 28 50 4 8 25 47 48 85 23 39
69 117 102 175 342 591 423 731 445 770 14 25 97 169 185 320 88 151 165 285
172 298 l12 22 -1044 0 -1045 0 -67 -132 c-37 -73 -71 -137 -75 -143 -4 -5
-53 -100 -110 -210 -131 -256 -223 -431 -270 -520 -21 -38 -75 -142 -120 -230
-46 -88 -108 -207 -138 -265 -30 -58 -90 -172 -132 -255 -151 -289 -165 -314
-171 -307 -3 4 -38 68 -76 142 -39 74 -100 191 -135 260 -36 69 -98 188 -138
265 -40 77 -96 185 -125 240 -29 55 -90 172 -135 260 -135 262 -219 423 -280
540 -32 61 -86 165 -121 233 l-64 122 -1058 0 -1059 0 20 -32z"/>
</g>
</svg>
