<?xml version="1.0" standalone="no"?>
<!DOCTYPE svg PUBLIC "-//W3C//DTD SVG 20010904//EN"
 "http://www.w3.org/TR/2001/REC-SVG-20010904/DTD/svg10.dtd">
<svg version="1.0" xmlns="http://www.w3.org/2000/svg"
 width="707.000000pt" height="707.000000pt" viewBox="0 0 707.000000 707.000000"
 preserveAspectRatio="xMidYMid meet">
<metadata>
Created by potrace 1.11, written by Peter Selinger 2001-2013
</metadata>
<g transform="translate(0.000000,707.000000) scale(0.100000,-0.100000)"
fill="#000000" stroke="none">
<path d="M2061 6528 c-31 -9 -33 -11 -27 -41 18 -86 19 -119 5 -116 -25 5
-122 -12 -211 -37 -104 -29 -101 -28 -299 -121 -202 -94 -275 -114 -449 -118
-74 -1 -166 1 -205 6 -38 4 -106 11 -150 14 l-80 6 58 -30 c32 -16 70 -32 85
-35 15 -2 63 -11 107 -20 97 -19 184 -27 290 -27 139 -1 210 14 415 87 184 66
271 86 382 88 54 0 101 -3 107 -9 5 -5 11 -26 13 -45 3 -39 26 -32 -202 -65
-37 -5 -113 -17 -130 -20 -8 -2 -37 -6 -65 -9 -27 -4 -75 -11 -105 -16 -30 -5
-80 -12 -110 -16 -72 -8 -85 -20 -63 -59 40 -74 54 -109 70 -167 22 -82 21
-243 -1 -323 -24 -84 -26 -90 -47 -143 -11 -28 -12 -55 -1 -49 4 3 32 8 62 11
30 4 87 11 125 17 39 5 84 12 100 14 17 3 39 6 50 9 11 2 43 7 70 10 28 4 77
11 110 16 33 5 80 12 105 15 25 3 52 8 60 10 8 2 38 7 66 10 48 6 52 4 57 -17
4 -12 3 -26 -2 -31 -9 -9 -2 -8 -271 -48 -74 -11 -146 -21 -160 -24 -23 -3
-212 -30 -290 -41 -19 -3 -60 -9 -90 -14 -30 -5 -75 -12 -100 -15 -25 -3 -56
-8 -70 -10 -14 -2 -54 -9 -89 -14 -35 -6 -66 -12 -68 -15 -3 -3 17 -28 43 -56
120 -127 151 -239 119 -425 -20 -115 -97 -294 -183 -423 -19 -29 -32 -55 -28
-59 4 -4 49 -8 101 -9 101 -2 214 18 339 60 79 27 369 129 431 152 22 8 90 32
150 53 61 22 277 98 480 171 204 73 408 145 455 161 47 17 92 33 100 36 8 3
17 7 20 8 8 3 44 16 62 23 24 10 93 105 129 177 68 141 59 320 -22 418 -31 37
-33 38 -82 32 -27 -4 -58 -8 -68 -10 -9 -2 -39 -7 -66 -11 -26 -3 -57 -8 -68
-10 -11 -2 -40 -6 -65 -10 -25 -3 -70 -9 -100 -14 -30 -6 -73 -12 -95 -15 -44
-5 -181 -25 -207 -30 -9 -2 -38 -6 -65 -10 -26 -4 -55 -8 -63 -11 -20 -5 -36
7 -44 33 -6 18 -2 22 21 27 42 9 83 15 138 21 28 3 57 8 65 10 8 2 35 7 60 10
25 3 56 8 70 10 14 2 43 7 65 9 54 8 83 14 94 21 15 8 51 112 68 190 35 167 5
375 -70 487 -21 30 -28 33 -72 34 -27 0 -67 -3 -89 -7 -23 -4 -61 -10 -86 -14
-25 -3 -70 -10 -100 -15 -30 -5 -77 -12 -105 -16 -27 -3 -57 -8 -66 -9 -9 -2
-40 -6 -69 -10 -29 -4 -61 -8 -71 -10 -13 -3 -21 3 -24 18 -23 97 -58 255 -71
319 -18 83 -26 91 -83 76z"/>
<path d="M3080 6211 c0 -8 22 -129 34 -186 31 -148 38 -181 41 -184 2 -2 32
-5 67 -6 403 -19 805 -133 1154 -326 225 -125 380 -243 569 -433 284 -286 472
-590 595 -964 21 -62 40 -115 43 -119 5 -5 298 -8 394 -4 24 1 26 -8 -24 161
-83 287 -238 594 -430 851 -416 560 -1024 956 -1733 1129 -86 21 -104 24 -260
49 -198 32 -450 50 -450 32z"/>
<path d="M702 5182 c-190 -206 -340 -426 -448 -652 -45 -93 -114 -265 -114
-283 0 -7 -4 -17 -9 -22 -10 -11 -77 -278 -86 -345 -4 -25 -10 -65 -15 -90 -4
-25 -8 -52 -9 -60 0 -8 -4 -53 -8 -100 -13 -154 -5 -520 12 -574 2 -6 6 -27 9
-46 32 -215 132 -561 218 -752 12 -27 23 -48 25 -48 2 0 221 134 320 196 l22
14 -24 53 c-88 199 -140 410 -180 727 -6 48 -7 342 -1 400 2 19 7 69 10 110 3
41 8 84 10 95 2 11 7 40 10 65 22 159 97 402 167 542 78 154 197 327 313 453
31 33 56 63 56 67 0 4 -35 61 -77 128 -43 67 -82 129 -88 138 -5 9 -17 27 -26
39 l-17 23 -70 -78z"/>
<path d="M3600 4874 c-19 -9 -42 -17 -50 -19 -8 -2 -251 -94 -540 -203 -289
-110 -534 -203 -545 -207 -11 -4 -60 -22 -110 -40 -80 -29 -427 -160 -480
-181 -11 -4 -22 -8 -25 -9 -3 -1 -16 -6 -30 -12 -129 -53 -380 -125 -494 -143
-77 -12 -289 -16 -333 -6 -33 7 -153 19 -153 15 0 -9 43 -115 60 -148 41 -82
185 -241 320 -354 47 -40 90 -76 96 -82 33 -30 437 -360 443 -363 5 -1 41 13
82 31 475 219 1152 453 1614 557 28 7 59 14 70 17 11 2 39 9 63 14 24 5 48 11
53 15 20 12 105 217 124 300 2 10 9 37 14 59 49 197 23 523 -55 686 -45 93
-59 101 -124 73z"/>
<path d="M5528 3885 c-2 -2 -97 -6 -213 -9 -115 -4 -232 -8 -260 -10 -27 -2
-90 -7 -140 -10 -384 -28 -921 -115 -1310 -213 -77 -19 -147 -36 -155 -38 -8
-2 -80 -22 -160 -45 -382 -109 -856 -285 -1179 -436 -51 -24 -95 -44 -98 -44
-7 0 -314 -154 -411 -207 -234 -126 -532 -306 -732 -442 -225 -153 -490 -359
-490 -380 0 -20 52 -110 118 -206 319 -462 931 -867 1715 -1134 130 -44 357
-111 475 -139 l42 -10 0 1184 0 1184 53 34 c206 132 568 284 927 390 123 36
383 103 470 121 32 7 326 64 350 68 25 5 71 13 125 22 17 3 75 12 130 20 55 9
111 17 125 20 14 2 49 7 79 10 30 4 61 8 70 10 9 1 47 6 84 10 37 3 76 8 85
10 9 1 51 6 92 10 41 3 82 8 90 10 8 2 56 6 105 10 50 3 98 8 107 11 24 7 32
-56 32 -276 1 -201 -6 -290 -30 -408 -80 -394 -231 -715 -489 -1037 -82 -102
-221 -248 -310 -325 -33 -28 -69 -60 -80 -69 -72 -64 -294 -216 -414 -283 -63
-36 -249 -127 -303 -149 -151 -60 -214 -82 -323 -114 -248 -72 -490 -110 -737
-116 -42 -1 -68 -6 -69 -13 0 -6 -1 -85 -1 -176 l0 -165 118 1 c110 0 244 8
304 18 14 2 43 7 65 10 170 25 485 99 534 125 9 5 18 9 21 8 11 -1 121 38 224
79 160 66 322 147 508 257 91 53 286 196 390 285 152 130 347 329 407 416 8
12 18 23 21 26 12 9 116 154 161 225 138 215 248 454 315 688 18 65 36 128 38
140 20 99 27 137 31 172 3 22 7 51 10 65 18 91 24 349 12 532 -4 59 -4 109 1
111 4 3 90 8 192 12 102 4 210 9 240 10 30 2 157 4 283 5 125 1 227 5 227 9 0
6 -118 27 -310 55 -19 3 -61 8 -93 11 -32 4 -67 8 -78 10 -11 2 -50 7 -87 10
-37 3 -78 8 -92 10 -14 2 -70 7 -125 11 -55 3 -120 8 -145 10 -25 2 -148 6
-275 9 -126 4 -238 8 -247 9 -9 2 -18 3 -20 1z m-3243 -1402 c3 -259 15 -1112
18 -1276 1 -48 0 -87 -3 -87 -7 0 -385 191 -535 270 -158 83 -331 179 -462
258 -146 86 -295 195 -377 274 l-51 49 50 43 c89 80 436 275 905 511 384 194
445 223 449 219 2 -2 5 -119 6 -261z"/>
<path d="M7023 3743 c9 -2 23 -2 30 0 6 3 -1 5 -18 5 -16 0 -22 -2 -12 -5z"/>
</g>
</svg>
