<?xml version="1.0" standalone="no"?>
<!DOCTYPE svg PUBLIC "-//W3C//DTD SVG 20010904//EN"
 "http://www.w3.org/TR/2001/REC-SVG-20010904/DTD/svg10.dtd">
<svg version="1.0" xmlns="http://www.w3.org/2000/svg"
 width="1235.000000pt" height="1235.000000pt" viewBox="0 0 1235.000000 1235.000000"
 preserveAspectRatio="xMidYMid meet">
<metadata>
Created by potrace 1.11, written by Peter Selinger 2001-2013
</metadata>
<g transform="translate(0.000000,1235.000000) scale(0.100000,-0.100000)"
fill="#000000" stroke="none">
<path d="M4929 9153 c-14 -3 -15 -11 -9 -41 4 -20 11 -57 14 -82 l7 -45 -83
-12 c-129 -17 -267 -73 -433 -173 -166 -101 -238 -122 -420 -125 -77 -1 -175
3 -217 9 -95 14 -89 5 12 -18 180 -42 351 -52 465 -26 56 12 134 40 204 72
196 90 306 116 462 109 l37 -1 12 -66 c9 -48 10 -68 1 -77 -6 -6 -11 -8 -11
-5 0 3 -17 2 -37 -3 -21 -5 -58 -11 -83 -15 -25 -3 -65 -10 -90 -16 -25 -5
-56 -11 -70 -13 -14 -2 -41 -7 -60 -10 -66 -12 -135 -24 -207 -37 -40 -6 -73
-15 -73 -20 0 -5 9 -26 19 -46 18 -35 44 -115 57 -173 10 -44 12 -243 4 -294
-16 -95 -20 -113 -39 -174 l-19 -62 36 6 c21 3 64 10 97 16 33 6 71 13 85 15
14 3 48 9 75 14 28 5 67 12 89 16 21 3 48 7 60 10 65 12 245 43 270 46 21 2
30 -2 32 -14 1 -10 5 -35 9 -55 l6 -38 -98 -18 c-54 -10 -111 -20 -128 -23
-125 -21 -166 -28 -210 -37 -27 -6 -81 -15 -129 -23 -21 -3 -48 -8 -60 -10
-53 -10 -143 -26 -161 -29 -39 -5 -259 -46 -262 -49 -1 -1 20 -33 47 -70 65
-89 92 -172 95 -294 1 -51 -2 -114 -7 -140 -4 -26 -11 -60 -13 -77 -16 -92
-127 -376 -162 -413 -30 -31 -15 -42 57 -42 88 0 152 13 268 56 107 39 267
112 260 119 -2 2 -33 -4 -69 -15 -79 -24 -243 -59 -326 -69 -62 -7 -77 -1 -55
25 10 11 55 128 77 199 46 149 67 336 51 452 -7 47 -31 124 -54 171 l-20 41
27 5 c31 6 242 43 291 51 35 6 128 22 165 29 11 2 40 7 65 12 25 4 47 8 50 9
3 0 27 4 53 9 27 4 59 9 70 12 12 2 63 11 112 20 50 8 101 17 115 20 14 3 36
7 50 9 23 4 227 39 455 80 50 9 104 18 120 21 17 2 37 7 45 9 8 2 33 6 55 9
22 4 52 9 67 12 23 5 29 0 46 -33 47 -92 63 -213 42 -308 -7 -27 -13 -57 -15
-65 -2 -8 -6 -23 -10 -32 -13 -33 4 -18 24 20 54 105 73 268 45 377 -17 65
-60 149 -73 141 -4 -3 -73 -17 -152 -31 -79 -13 -155 -27 -169 -29 -14 -3 -41
-7 -60 -10 -19 -3 -73 -13 -120 -21 -47 -9 -94 -18 -105 -19 -11 -2 -62 -11
-114 -20 -51 -9 -95 -16 -96 -14 -2 2 -6 19 -9 39 -3 20 -8 43 -11 51 -8 20 0
23 134 45 25 4 48 8 51 8 3 1 25 5 50 9 25 5 54 10 65 12 99 19 143 27 160 29
11 1 23 3 26 4 3 0 16 34 27 74 68 234 58 461 -28 639 l-22 44 -67 -12 c-36
-7 -84 -15 -106 -18 -23 -4 -52 -8 -65 -11 -23 -5 -111 -21 -162 -30 -45 -8
-201 -35 -203 -35 -1 0 -6 19 -10 43 -4 23 -9 49 -11 57 -5 26 -16 84 -21 110
-25 144 -50 254 -58 256 -6 1 -17 0 -26 -3z m691 -473 c36 -65 59 -288 40
-391 -5 -24 -10 -58 -13 -76 -3 -18 -10 -47 -16 -66 -11 -32 -16 -35 -64 -42
-29 -5 -54 -9 -57 -10 -5 -1 -83 -14 -125 -21 -11 -2 -31 -5 -45 -9 -14 -3
-92 -17 -175 -31 -82 -14 -222 -38 -310 -54 -88 -16 -176 -31 -195 -34 -19 -3
-59 -10 -89 -16 -81 -15 -80 -15 -70 28 37 158 25 391 -27 526 -6 17 -2 18
186 50 118 20 140 24 215 37 33 6 70 13 83 15 12 2 34 6 50 9 15 3 54 9 87 15
33 5 70 12 83 15 39 7 265 47 299 52 18 2 44 8 59 12 42 11 75 7 84 -9z"/>
<path d="M5380 8435 c-63 -24 -173 -65 -245 -90 -71 -26 -170 -62 -220 -80
-49 -18 -125 -46 -167 -62 -43 -15 -78 -31 -78 -35 0 -4 6 -6 13 -3 14 4 154
31 207 39 19 3 46 8 60 10 14 3 66 12 115 21 50 8 101 17 115 20 14 2 36 6 50
9 14 2 41 7 60 11 51 9 57 10 143 25 l77 13 1 36 c3 101 2 125 -7 128 -5 1
-61 -18 -124 -42z"/>
<path d="M9888 8695 c-2 -1 -32 -5 -68 -8 -318 -26 -683 -148 -958 -319 -676
-420 -1086 -1157 -1076 -1934 2 -169 20 -358 39 -424 2 -8 6 -26 9 -40 19
-108 91 -330 142 -440 15 -30 36 -75 47 -100 57 -121 179 -306 287 -435 119
-141 247 -260 445 -410 18 -14 16 -15 -25 -16 -25 0 -70 -3 -100 -5 -97 -7
-590 -8 -730 0 -265 13 -441 29 -650 56 -42 6 -94 13 -115 15 -328 42 -824
160 -1230 292 -212 69 -477 160 -575 198 -293 114 -456 179 -460 182 -3 3 6
13 19 24 13 10 70 63 128 117 154 143 169 157 274 258 94 91 96 92 135 86 50
-9 294 -8 359 0 323 43 652 226 925 513 96 102 268 321 258 330 -2 2 -44 -35
-93 -83 -150 -144 -263 -237 -402 -330 -101 -69 -122 -52 -61 48 119 192 200
451 213 677 l5 91 -39 49 c-76 96 -203 193 -327 250 -44 20 -63 23 -92 17 -20
-4 -39 -8 -42 -8 -162 -33 -521 -201 -870 -406 -96 -56 -184 -108 -195 -114
-11 -6 -34 -21 -52 -33 -17 -13 -34 -23 -38 -23 -4 0 -37 -20 -73 -44 -107
-70 -511 -319 -582 -358 -36 -20 -91 -43 -122 -51 -65 -17 -221 -20 -285 -6
-51 11 -73 4 -73 -25 0 -41 58 -187 101 -252 35 -54 40 -67 28 -75 -74 -49
-260 -159 -267 -159 -5 0 -63 23 -128 51 -413 178 -743 303 -989 373 -107 31
-327 81 -405 92 -30 4 -57 8 -60 9 -15 4 -142 18 -185 21 -75 5 -326 5 -355 0
-14 -2 -52 -7 -85 -11 -73 -8 -95 -11 -165 -24 -30 -6 -66 -13 -79 -16 -13 -2
-64 -16 -113 -31 -295 -86 -522 -218 -724 -419 -226 -225 -354 -465 -399 -747
-23 -143 -15 -333 19 -487 15 -68 64 -196 104 -276 87 -171 191 -305 324 -417
28 -24 56 -48 63 -54 30 -29 169 -116 254 -159 120 -60 300 -120 421 -140 52
-9 106 -19 120 -22 44 -9 442 -11 518 -2 632 72 1223 338 1955 882 89 66 184
138 210 160 l48 40 -90 86 c-81 78 -306 294 -529 509 -48 46 -73 76 -57 66 98
-60 763 -498 1110 -731 170 -114 369 -244 411 -267 16 -9 63 -37 104 -63 140
-86 374 -215 540 -297 156 -77 439 -206 453 -206 4 0 26 -9 50 -19 158 -72
528 -185 867 -266 62 -15 414 -86 450 -91 25 -3 47 -8 50 -9 3 -2 26 -6 50
-10 25 -3 68 -10 95 -15 28 -5 75 -12 105 -15 30 -3 62 -8 70 -10 8 -2 40 -7
70 -10 30 -3 64 -8 75 -10 11 -2 52 -7 90 -11 39 -3 84 -8 100 -9 17 -2 66 -6
110 -10 44 -4 94 -8 110 -10 178 -21 864 -22 995 -1 14 3 61 7 105 11 92 7 92
7 245 30 200 29 367 64 549 115 783 221 1379 675 1758 1336 80 140 185 364
228 489 9 28 20 57 23 65 9 27 11 33 47 160 40 140 37 128 64 270 25 132 29
157 38 266 14 163 7 533 -12 633 -2 11 -7 41 -10 68 -17 121 -79 368 -115 458
-4 11 -23 58 -41 105 -92 238 -261 520 -413 690 -402 450 -873 697 -1461 766
-53 6 -392 14 -397 9z m-7947 -2760 c85 -12 105 -16 204 -40 281 -67 586 -197
890 -380 44 -26 90 -54 103 -60 25 -14 16 -21 -366 -280 -626 -425 -1015 -609
-1402 -662 -69 -10 -327 -10 -400 0 -167 22 -276 51 -388 103 -163 75 -277
182 -347 329 -46 97 -62 161 -69 270 -4 58 -3 64 5 35 35 -125 52 -171 78
-212 83 -131 209 -222 403 -292 66 -24 94 -22 62 5 -23 19 -62 89 -85 155 -24
68 -34 235 -18 299 5 22 12 50 15 63 2 12 18 52 35 88 81 178 229 332 419 436
125 68 328 131 465 144 39 4 71 8 73 9 6 5 278 -3 323 -10z m-1774 -637 c-3
-7 -5 -2 -5 12 0 14 2 19 5 13 2 -7 2 -19 0 -25z"/>
</g>
</svg>
